<mxfile host="app.diagrams.net" agent="Mozilla/5.0 (Windows NT 10.0; Win64; x64) AppleWebKit/537.36 (KHTML, like Gecko) Chrome/129.0.0.0 Safari/537.36" version="24.7.17">
  <diagram name="Page-1" id="1kE8B7EqgECgEpJ3k9eq">
    <mxGraphModel dx="794" dy="492" grid="1" gridSize="10" guides="1" tooltips="1" connect="1" arrows="1" fold="1" page="1" pageScale="1" pageWidth="850" pageHeight="1100" background="#CCCCCC" math="0" shadow="0">
      <root>
        <mxCell id="0" />
        <mxCell id="1" parent="0" />
        <mxCell id="8U5WOkcnbzzaJ-20buk8-20" style="edgeStyle=orthogonalEdgeStyle;rounded=0;orthogonalLoop=1;jettySize=auto;html=1;" edge="1" parent="1" source="8U5WOkcnbzzaJ-20buk8-17" target="8U5WOkcnbzzaJ-20buk8-8">
          <mxGeometry relative="1" as="geometry" />
        </mxCell>
        <mxCell id="8U5WOkcnbzzaJ-20buk8-17" value="a" style="shape=ext;double=1;rounded=1;whiteSpace=wrap;html=1;textOpacity=0;opacity=20;fillColor=#E6E6E6;" vertex="1" parent="1">
          <mxGeometry x="333.5" y="170" width="200" height="240" as="geometry" />
        </mxCell>
        <mxCell id="8U5WOkcnbzzaJ-20buk8-26" style="edgeStyle=orthogonalEdgeStyle;rounded=0;orthogonalLoop=1;jettySize=auto;html=1;" edge="1" parent="1" source="8U5WOkcnbzzaJ-20buk8-2" target="8U5WOkcnbzzaJ-20buk8-5">
          <mxGeometry relative="1" as="geometry" />
        </mxCell>
        <mxCell id="8U5WOkcnbzzaJ-20buk8-2" value="" style="outlineConnect=0;dashed=0;verticalLabelPosition=bottom;verticalAlign=top;align=center;html=1;shape=mxgraph.aws3.encrypted_data;fillColor=#7D7C7C;gradientColor=none;" vertex="1" parent="1">
          <mxGeometry x="593.5" y="401.5" width="43.5" height="55.5" as="geometry" />
        </mxCell>
        <mxCell id="8U5WOkcnbzzaJ-20buk8-3" value="" style="outlineConnect=0;dashed=0;verticalLabelPosition=bottom;verticalAlign=top;align=center;html=1;shape=mxgraph.aws3.iam;fillColor=#759C3E;gradientColor=none;" vertex="1" parent="1">
          <mxGeometry x="80" y="249.5" width="42" height="81" as="geometry" />
        </mxCell>
        <mxCell id="8U5WOkcnbzzaJ-20buk8-4" value="" style="outlineConnect=0;dashed=0;verticalLabelPosition=bottom;verticalAlign=top;align=center;html=1;shape=mxgraph.aws3.cloudtrail;fillColor=#759C3E;gradientColor=none;" vertex="1" parent="1">
          <mxGeometry x="720" y="47" width="76.5" height="93" as="geometry" />
        </mxCell>
        <mxCell id="8U5WOkcnbzzaJ-20buk8-5" value="" style="outlineConnect=0;dashed=0;verticalLabelPosition=bottom;verticalAlign=top;align=center;html=1;shape=mxgraph.aws3.cloudwatch;fillColor=#759C3E;gradientColor=none;" vertex="1" parent="1">
          <mxGeometry x="720" y="440" width="82.5" height="93" as="geometry" />
        </mxCell>
        <mxCell id="8U5WOkcnbzzaJ-20buk8-6" value="Amazon MQ" style="sketch=0;outlineConnect=0;fontColor=#232F3E;gradientColor=none;strokeColor=#ffffff;fillColor=#232F3E;dashed=0;verticalLabelPosition=middle;verticalAlign=bottom;align=center;html=1;whiteSpace=wrap;fontSize=10;fontStyle=1;spacing=3;shape=mxgraph.aws4.productIcon;prIcon=mxgraph.aws4.mq;" vertex="1" parent="1">
          <mxGeometry x="395" y="210" width="70" height="90" as="geometry" />
        </mxCell>
        <mxCell id="8U5WOkcnbzzaJ-20buk8-24" style="edgeStyle=orthogonalEdgeStyle;rounded=0;orthogonalLoop=1;jettySize=auto;html=1;" edge="1" parent="1" source="8U5WOkcnbzzaJ-20buk8-7" target="8U5WOkcnbzzaJ-20buk8-4">
          <mxGeometry relative="1" as="geometry" />
        </mxCell>
        <mxCell id="8U5WOkcnbzzaJ-20buk8-7" value="" style="outlineConnect=0;dashed=0;verticalLabelPosition=bottom;verticalAlign=top;align=center;html=1;shape=mxgraph.aws3.encrypted_data;fillColor=#7D7C7C;gradientColor=none;" vertex="1" parent="1">
          <mxGeometry x="593.5" y="120" width="43.5" height="55.5" as="geometry" />
        </mxCell>
        <mxCell id="8U5WOkcnbzzaJ-20buk8-8" value="" style="outlineConnect=0;dashed=0;verticalLabelPosition=bottom;verticalAlign=top;align=center;html=1;shape=mxgraph.aws3.encrypted_data;fillColor=#7D7C7C;gradientColor=none;" vertex="1" parent="1">
          <mxGeometry x="209" y="262.25" width="43.5" height="55.5" as="geometry" />
        </mxCell>
        <mxCell id="8U5WOkcnbzzaJ-20buk8-13" style="edgeStyle=orthogonalEdgeStyle;rounded=0;orthogonalLoop=1;jettySize=auto;html=1;" edge="1" parent="1" source="8U5WOkcnbzzaJ-20buk8-9" target="8U5WOkcnbzzaJ-20buk8-6">
          <mxGeometry relative="1" as="geometry" />
        </mxCell>
        <mxCell id="8U5WOkcnbzzaJ-20buk8-10" value="a" style="shape=ext;double=1;rounded=1;whiteSpace=wrap;html=1;textOpacity=0;opacity=20;fillColor=#E6E6E6;" vertex="1" parent="1">
          <mxGeometry x="52.5" y="5" width="200" height="135" as="geometry" />
        </mxCell>
        <mxCell id="8U5WOkcnbzzaJ-20buk8-22" style="edgeStyle=orthogonalEdgeStyle;rounded=0;orthogonalLoop=1;jettySize=auto;html=1;exitX=1;exitY=0.5;exitDx=0;exitDy=0;" edge="1" parent="1" source="8U5WOkcnbzzaJ-20buk8-11" target="8U5WOkcnbzzaJ-20buk8-9">
          <mxGeometry relative="1" as="geometry" />
        </mxCell>
        <mxCell id="8U5WOkcnbzzaJ-20buk8-11" value="Loan Processing Service" style="rounded=1;whiteSpace=wrap;html=1;fillColor=#E6E6E6;gradientColor=#7ea6e0;strokeColor=#6c8ebf;" vertex="1" parent="1">
          <mxGeometry x="90" y="40" width="120" height="60" as="geometry" />
        </mxCell>
        <mxCell id="8U5WOkcnbzzaJ-20buk8-12" value="Message Initiation" style="text;strokeColor=none;align=center;fillColor=#E6E6E6;html=1;verticalAlign=middle;whiteSpace=wrap;rounded=0;fontSize=15;fontStyle=1" vertex="1" parent="1">
          <mxGeometry x="80" y="110" width="140" height="30" as="geometry" />
        </mxCell>
        <mxCell id="8U5WOkcnbzzaJ-20buk8-9" value="" style="outlineConnect=0;dashed=0;verticalLabelPosition=bottom;verticalAlign=top;align=center;html=1;shape=mxgraph.aws3.encrypted_data;fillColor=#7D7C7C;gradientColor=none;" vertex="1" parent="1">
          <mxGeometry x="408.25" y="42.25" width="43.5" height="55.5" as="geometry" />
        </mxCell>
        <mxCell id="8U5WOkcnbzzaJ-20buk8-15" value="" style="outlineConnect=0;dashed=0;verticalLabelPosition=bottom;verticalAlign=top;align=center;html=1;shape=mxgraph.aws3.encrypted_data;fillColor=#7D7C7C;gradientColor=none;" vertex="1" parent="1">
          <mxGeometry x="408.25" y="310" width="43.5" height="55.5" as="geometry" />
        </mxCell>
        <mxCell id="8U5WOkcnbzzaJ-20buk8-18" value="Core Message Processing Hub" style="text;strokeColor=none;align=center;fillColor=none;html=1;verticalAlign=middle;whiteSpace=wrap;rounded=0;fontSize=15;fontStyle=1" vertex="1" parent="1">
          <mxGeometry x="356" y="365.5" width="155" height="36" as="geometry" />
        </mxCell>
        <mxCell id="8U5WOkcnbzzaJ-20buk8-21" style="edgeStyle=orthogonalEdgeStyle;rounded=0;orthogonalLoop=1;jettySize=auto;html=1;" edge="1" parent="1" source="8U5WOkcnbzzaJ-20buk8-8" target="8U5WOkcnbzzaJ-20buk8-3">
          <mxGeometry relative="1" as="geometry" />
        </mxCell>
        <mxCell id="8U5WOkcnbzzaJ-20buk8-23" style="edgeStyle=orthogonalEdgeStyle;rounded=0;orthogonalLoop=1;jettySize=auto;html=1;entryX=0.55;entryY=1;entryDx=0;entryDy=0;entryPerimeter=0;" edge="1" parent="1" source="8U5WOkcnbzzaJ-20buk8-17" target="8U5WOkcnbzzaJ-20buk8-7">
          <mxGeometry relative="1" as="geometry" />
        </mxCell>
        <mxCell id="8U5WOkcnbzzaJ-20buk8-25" style="edgeStyle=orthogonalEdgeStyle;rounded=0;orthogonalLoop=1;jettySize=auto;html=1;entryX=0.55;entryY=0;entryDx=0;entryDy=0;entryPerimeter=0;" edge="1" parent="1" source="8U5WOkcnbzzaJ-20buk8-17" target="8U5WOkcnbzzaJ-20buk8-2">
          <mxGeometry relative="1" as="geometry" />
        </mxCell>
      </root>
    </mxGraphModel>
  </diagram>
</mxfile>
